<?xml version="1.0" standalone="no"?>
<!DOCTYPE svg PUBLIC "-//W3C//DTD SVG 20010904//EN"
 "http://www.w3.org/TR/2001/REC-SVG-20010904/DTD/svg10.dtd">
<svg version="1.0" xmlns="http://www.w3.org/2000/svg"
 width="1709.000000pt" height="1709.000000pt" viewBox="0 0 1709.000000 1709.000000"
 preserveAspectRatio="xMidYMid meet">
<metadata>
Created by potrace 1.14, written by Peter Selinger 2001-2017
</metadata>
<g transform="translate(0.000000,1709.000000) scale(0.100000,-0.100000)"
fill="#000000" stroke="none">
<path d="M1880 11757 l0 -5332 910 -910 910 -910 282 -117 c155 -65 286 -118
290 -118 4 0 8 1744 8 3875 0 2155 4 3875 9 3875 4 0 733 -727 1620 -1615
l1611 -1616 0 -2229 0 -2230 38 -19 c20 -10 48 -22 62 -26 14 -4 43 -16 65
-26 22 -10 123 -52 225 -93 l185 -76 2275 2 2275 3 0 829 0 830 -284 118 -284
118 -1151 3 -1151 2 -2 1290 -2 1290 1519 1523 c836 838 1520 1519 1520 1515
0 -4 1 -1180 1 -2613 1 -1433 4 -3070 8 -3639 l6 -1034 165 -69 c91 -37 212
-87 270 -110 58 -23 111 -46 118 -51 8 -6 17 -5 27 3 8 7 418 415 910 907
l895 895 0 5347 0 5346 -168 69 c-92 38 -222 92 -290 119 l-123 50 -2427
-2426 c-1335 -1335 -2428 -2427 -2429 -2427 -2 0 -3 1039 -3 2309 l0 2308
-222 92 c-123 51 -237 99 -253 106 -17 8 -43 19 -59 24 -22 9 -944 15 -1703
11 -10 0 -13 -518 -13 -2557 l0 -2558 -2527 2527 -2528 2526 -268 111 c-147
61 -278 111 -292 111 l-25 0 0 -5333z"/>
<path d="M1880 3850 l0 -60 6650 0 6650 0 0 60 0 60 -6650 0 -6650 0 0 -60z"/>
<path d="M1892 3581 c-9 -5 -12 -25 -10 -62 l3 -54 6645 0 6645 0 0 60 0 60
-6635 2 c-3649 2 -6641 -1 -6648 -6z"/>
<path d="M2670 3020 c-210 -49 -383 -161 -475 -305 -161 -252 -45 -572 262
-724 86 -43 182 -67 382 -96 347 -51 433 -83 545 -199 94 -98 119 -241 62
-358 -53 -112 -205 -221 -366 -265 -90 -24 -310 -24 -400 0 -201 54 -357 182
-391 322 -6 28 -13 56 -15 63 -5 16 -144 -57 -144 -75 0 -61 92 -217 168 -284
151 -132 350 -201 582 -201 243 0 448 75 589 214 101 100 148 196 158 323 10
144 -29 254 -132 364 -132 142 -270 202 -560 241 -366 50 -430 72 -541 185
-81 82 -108 139 -112 236 -4 66 0 83 23 132 33 71 126 164 205 206 284 152
677 104 870 -105 38 -42 90 -133 90 -161 0 -6 4 -23 10 -37 l9 -25 67 37 c65
36 66 37 61 73 -9 68 -59 151 -137 229 -111 111 -229 173 -395 211 -107 25
-310 24 -415 -1z"/>
<path d="M4895 3024 c-218 -39 -418 -147 -571 -306 -145 -151 -229 -301 -281
-503 -25 -99 -25 -401 0 -495 65 -239 194 -444 367 -582 202 -162 414 -238
663 -238 186 0 322 32 481 112 419 211 649 668 572 1138 -62 380 -341 710
-706 834 -161 54 -360 70 -525 40z m438 -178 c251 -75 458 -255 572 -500 95
-206 102 -504 16 -716 -128 -313 -412 -533 -737 -569 -189 -21 -362 12 -524
98 -200 107 -352 279 -429 486 -48 132 -56 179 -55 335 1 127 5 156 28 235 89
295 314 532 591 621 115 37 163 43 315 39 109 -2 152 -8 223 -29z"/>
<path d="M13612 3024 c-259 -57 -460 -208 -536 -402 -23 -60 -31 -176 -17
-241 39 -183 200 -351 406 -424 63 -22 224 -54 370 -72 91 -12 248 -47 298
-66 101 -40 210 -139 249 -226 30 -69 29 -181 -2 -246 -50 -105 -183 -212
-320 -257 -331 -107 -724 18 -829 264 -12 26 -21 61 -21 76 0 16 -4 31 -9 34
-5 3 -39 -11 -75 -32 -64 -35 -67 -38 -62 -69 8 -55 62 -155 117 -216 104
-117 242 -190 449 -238 78 -18 298 -15 383 6 318 75 525 274 544 523 10 133
-31 247 -128 356 -128 143 -273 207 -564 246 -274 37 -334 50 -420 91 -70 33
-175 140 -210 214 -143 305 275 615 716 530 205 -39 357 -140 424 -281 14 -29
25 -66 25 -83 0 -38 17 -43 60 -17 19 12 48 28 63 36 26 13 28 18 23 49 -3 20
-19 63 -35 96 -82 167 -280 301 -513 349 -95 20 -297 20 -386 0z"/>
<path d="M8784 3014 c3 -9 6 -483 6 -1055 l0 -1040 73 3 72 3 5 838 5 839 111
-134 c61 -73 288 -344 504 -603 216 -259 487 -583 603 -722 116 -139 214 -250
219 -247 10 7 10 2095 -1 2112 -5 9 -28 12 -77 10 l-69 -3 -5 -843 -5 -844
-312 374 c-171 205 -424 508 -563 673 -138 165 -318 380 -398 477 -81 97 -153
177 -161 178 -8 0 -11 -6 -7 -16z"/>
<path d="M6604 3006 c-3 -7 -3 -332 -2 -722 5 -803 0 -759 88 -939 103 -210
300 -368 530 -426 121 -30 301 -24 415 14 273 90 483 317 545 590 20 89 21
113 18 792 l-3 700 -70 0 -70 0 -5 -710 c-5 -638 -7 -716 -23 -769 -78 -264
-284 -442 -546 -475 -273 -34 -535 107 -655 354 -67 137 -66 122 -66 885 0
379 -3 695 -6 704 -8 21 -142 23 -150 2z"/>
<path d="M10995 2999 c-3 -13 -4 -485 -3 -1049 l3 -1025 350 -3 c279 -2 368 1
440 13 215 37 393 131 537 283 473 502 366 1338 -215 1670 -79 45 -146 72
-267 104 -67 18 -114 21 -457 25 l-382 5 -6 -23z m835 -163 c36 -10 111 -40
166 -66 213 -103 370 -303 437 -555 17 -65 21 -110 22 -240 0 -163 -7 -211
-47 -330 -83 -244 -279 -444 -515 -526 -105 -36 -232 -49 -495 -49 l-248 0 0
896 0 896 308 -5 c249 -3 319 -7 372 -21z"/>
<path d="M1893 443 c-9 -3 -13 -26 -13 -64 l0 -59 6648 2 6647 3 0 60 0 60
-6635 2 c-3649 1 -6641 -1 -6647 -4z"/>
<path d="M1880 60 l0 -60 6650 0 6650 0 0 60 0 60 -6650 0 -6650 0 0 -60z"/>
</g>
</svg>
